<?xml version="1.0" encoding="UTF-8"?>
<svg width="980px" height="680px" viewBox="0 0 980 680" version="1.1" xmlns="http://www.w3.org/2000/svg" xmlns:xlink="http://www.w3.org/1999/xlink">
    <title>EU SEPA HDE DE</title>
    <defs>
        <linearGradient x1="50%" y1="0%" x2="50%" y2="100%" id="linearGradient-1">
            <stop stop-color="#FFFFFF" offset="0%"></stop>
            <stop stop-color="#EDEDED" offset="100%"></stop>
        </linearGradient>
        <rect id="path-2" x="0" y="0" width="900" height="600" rx="80"></rect>
        <filter x="-6.7%" y="-10.0%" width="113.3%" height="120.0%" filterUnits="objectBoundingBox" id="filter-3">
            <feMorphology radius="2.5" operator="dilate" in="SourceAlpha" result="shadowSpreadOuter1"></feMorphology>
            <feOffset dx="0" dy="0" in="shadowSpreadOuter1" result="shadowOffsetOuter1"></feOffset>
            <feGaussianBlur stdDeviation="17.5" in="shadowOffsetOuter1" result="shadowBlurOuter1"></feGaussianBlur>
            <feColorMatrix values="0 0 0 0 0   0 0 0 0 0   0 0 0 0 0  0 0 0 0.5 0" type="matrix" in="shadowBlurOuter1"></feColorMatrix>
        </filter>
        <polygon id="path-4" points="2.49561272e-15 0 154.895474 0 154.895474 144.959668 2.49561272e-15 144.959668"></polygon>
    </defs>
    <g id="EU-SEPA-HDE-DE" stroke="none" stroke-width="1" fill="none" fill-rule="evenodd">
        <g transform="translate(40, 40)">
            <g id="Rectangle">
                <use fill="black" fill-opacity="1" filter="url(#filter-3)" xlink:href="#path-2"></use>
                <use fill="url(#linearGradient-1)" fill-rule="evenodd" xlink:href="#path-2"></use>
            </g>
            <path d="M820,0 C864.18278,0 900,35.81722 900,80 L900,520 C900,564.18278 864.18278,600 820,600 L80,600 C35.81722,600 0,564.18278 0,520 L0,80 C0,35.81722 35.81722,0 80,0 L820,0 Z M80,30 C52.3857625,30 30,52.3857625 30,80 L30,520 C30,547.614237 52.3857625,570 80,570 L820,570 C847.614237,570 870,547.614237 870,520 L870,80 C870,52.3857625 847.614237,30 820,30 L80,30 Z" id="Rectangle" fill="#AEB2BD" fill-rule="nonzero"></path>
            <g id="Logo" transform="translate(75, 158)">
                <path d="M391.100142,164.712194 C378.006427,164.712194 365.96639,161.553967 356.178417,156.288383 L359.491183,134.460373 C369.426671,139.727362 379.661405,142.740884 390.796682,142.740884 C403.140178,142.740884 408.560302,138.225519 408.560302,130.397388 C408.560302,112.639388 356.630796,120.162654 356.630796,82.3819472 C356.630796,63.265404 368.974292,47.7650864 397.56973,47.7650864 C408.560302,47.7650864 420.451418,50.0227688 429.178689,53.6319699 L426.021867,75.0076005 C416.686273,71.9982939 407.357703,70.1929909 398.779353,70.1929909 C384.779474,70.1929909 381.014328,75.0076005 381.014328,81.0304286 C381.014328,98.6395087 432.943834,90.5135378 432.943834,128.74241 C432.943834,151.015774 417.437897,164.712194 391.100142,164.712194" id="Fill-1" fill="#005DA0"></path>
                <polygon id="Fill-3" fill="#005DA0" points="530.798001 140.483482 530.802216 162.609332 454.042418 162.609332 454.042418 49.723805 530.798001 49.723805 530.802216 72.1474948 479.479629 72.1474948 479.479629 94.5768042 521.168782 94.5768042 521.168782 114.742812 479.479629 114.742812 479.479629 140.483482"></polygon>
                <path d="M593.737889,70.9441936 L578.68995,70.9441936 L578.68995,105.562459 L593.737889,105.562459 C606.230304,105.562459 611.651833,102.404233 611.651833,88.2554338 C611.651833,74.7093392 606.831604,70.9441936 593.737889,70.9441936 M593.737889,125.881601 L578.68995,125.881601 L578.68995,162.60863 L553.251334,162.60863 L553.251334,49.7245075 L593.737889,49.7245075 C625.049008,49.7245075 637.839264,62.0623838 637.839264,88.4043538 C637.839264,112.186587 625.197928,125.881601 593.737889,125.881601" id="Fill-5" fill="#005DA0"></path>
                <path d="M691.904366,80.7262666 L680.615953,119.411733 L709.364526,119.411733 L698.528493,80.7262666 L695.514972,68.8351501 L695.062592,68.8351501 L691.904366,80.7262666 Z M715.381734,140.632824 L674.444206,140.632824 L668.123538,162.608349 L641.333403,162.608349 L680.312494,49.7242265 L710.568529,49.7242265 L750,162.608349 L721.702402,162.608349 L715.381734,140.632824 Z" id="Fill-7" fill="#005DA0"></path>
                <polygon id="Fill-9" fill="#005DA0" points="390.194961 235.864875 389.912576 246.488768 356.716074 246.488768 356.716074 194.074569 368.597356 194.074569 368.597356 235.864875"></polygon>
                <path d="M420.318514,228.319411 C419.27467,227.899345 417.177147,227.409033 414.312545,227.409033 C409.488101,227.409033 407.251492,229.29863 407.251492,233.000555 C407.251492,237.126761 409.694622,238.590672 413.263081,238.590672 C416.963601,238.590672 420.318514,236.355468 420.318514,233.628548 L420.318514,228.319411 Z M421.927131,242.435897 L421.719205,242.367057 C419.13137,245.439584 415.078219,247.191501 410.253775,247.191501 C402.219122,247.191501 397.117912,242.643823 397.117912,233.138236 C397.117912,225.310105 402.570349,219.932128 412.213617,219.932128 C415.354985,219.932128 418.081906,220.42244 420.318514,221.120678 L420.318514,218.676143 C420.318514,214.410851 418.081906,212.451009 412.282457,212.451009 C407.602719,212.451009 404.524572,213.153461 400.610506,214.762077 L399.700128,206.092408 C403.965419,204.277271 408.789863,203.296647 414.238085,203.296647 C426.751575,203.296647 431.085707,208.680243 431.085707,220.27914 L431.085707,246.487644 L422.768669,246.487644 L421.927131,242.435897 Z" id="Fill-11" fill="#005DA0"></path>
                <path d="M454.505053,247.329603 C449.403843,247.329603 444.791539,246.350384 441.224485,244.396161 L442.34279,235.449726 C445.841003,237.472789 450.804533,238.453413 454.436213,238.453413 C458.770345,238.453413 460.586887,236.705711 460.586887,234.188121 C460.586887,227.408049 440.947719,231.322115 440.947719,216.508796 C440.947719,208.888591 446.11777,203.436154 457.024048,203.436154 C461.28372,203.436154 465.480171,204.276288 469.043011,205.741603 L468.136847,214.617794 C464.638633,213.153883 459.957489,212.45143 456.810502,212.45143 C453.247663,212.45143 451.289225,213.850716 451.289225,216.018484 C451.289225,222.445925 470.650222,218.6007 470.650222,233.213117 C470.650222,241.669241 465.969078,247.329603 454.505053,247.329603" id="Fill-13" fill="#005DA0"></path>
                <path d="M491.971764,212.243223 L491.971764,233.911074 C491.971764,237.195742 493.64922,238.590813 497.004134,238.590813 C498.122438,238.590813 499.586349,238.384292 500.359047,238.101906 L500.987039,245.998877 C499.517509,246.632489 496.721748,247.191642 493.718061,247.191642 C485.261937,247.191642 481.135731,242.296952 481.135731,234.256681 L481.135731,212.243223 L476.385747,212.243223 L476.385747,204.138326 L481.624638,204.138326 L483.44118,194.558278 L491.971764,193.792605 L491.971764,204.138326 L501.407106,204.138326 L501.407106,212.243223 L491.971764,212.243223 Z" id="Fill-15" fill="#005DA0"></path>
                <path d="M522.377562,247.329603 C517.276352,247.329603 512.665453,246.350384 509.096994,244.396161 L510.215299,235.449726 C513.713513,237.472789 518.677042,238.453413 522.308722,238.453413 C526.642854,238.453413 528.459396,236.705711 528.459396,234.188121 C528.459396,227.408049 508.820228,231.322115 508.820228,216.508796 C508.820228,208.888591 513.990279,203.436154 524.896557,203.436154 C529.156229,203.436154 533.35268,204.276288 536.91552,205.741603 L536.009356,214.617794 C532.511142,213.153883 527.829999,212.45143 524.683011,212.45143 C521.120172,212.45143 519.161734,213.850716 519.161734,216.018484 C519.161734,222.445925 538.522731,218.6007 538.522731,233.213117 C538.522731,241.669241 533.842992,247.329603 522.377562,247.329603" id="Fill-17" fill="#005DA0"></path>
                <path d="M575.292187,214.479692 C573.124419,213.712613 570.542203,213.153461 568.093454,213.153461 C560.195078,213.153461 557.607242,216.439534 557.607242,225.38597 C557.607242,234.470086 561.313382,238.03152 567.885528,238.03152 C570.681289,238.03152 573.337965,237.473773 575.574573,236.424309 L576.341652,244.880432 C573.828276,246.418803 570.051892,247.329182 565.509833,247.329182 C552.996344,247.329182 546.356763,240.199289 546.356763,225.38597 C546.356763,211.332704 552.160426,203.435733 565.717759,203.435733 C569.280599,203.435733 573.263505,204.208431 575.92018,205.25649 L575.292187,214.479692 Z" id="Fill-19" fill="#005DA0"></path>
                <path d="M611.01218,246.488346 L611.01218,219.511359 C611.01218,215.177227 608.844411,212.940618 604.233513,212.940618 C601.086525,212.940618 598.359605,214.341308 597.033374,216.156446 L597.033374,246.488346 L586.197342,246.488346 L586.197342,192.114305 L597.033374,191.555153 L597.033374,201.199826 L596.895694,206.789944 L597.10362,206.934649 C600.250607,204.276568 604.090213,203.29735 607.657266,203.29735 C616.603702,203.29735 621.842593,209.308938 621.842593,219.511359 L621.842593,246.488346 L611.01218,246.488346 Z" id="Fill-21" fill="#005DA0"></path>
                <path d="M633.2441,246.488346 L633.2441,204.415654 L641.90815,203.994183 L642.887368,211.055235 L643.095294,211.055235 C645.75197,205.954025 649.879581,203.43503 654.698405,203.43503 C656.589408,203.43503 658.192404,203.717416 659.309304,204.064428 L658.612471,214.761375 C657.28624,214.341308 655.679029,214.058922 654.001572,214.058922 C648.34121,214.058922 644.144758,218.186534 644.144758,225.241967 L644.144758,246.488346 L633.2441,246.488346 Z" id="Fill-23" fill="#005DA0"></path>
                <path d="M669.661909,246.488346 L669.661909,204.415654 L680.774708,203.925342 L680.774708,246.488346 L669.661909,246.488346 Z M675.253431,199.59121 C671.062599,199.59121 669.033916,198.404065 669.033916,194.978907 C669.033916,191.976625 671.062599,190.299168 675.253431,190.299168 C679.518723,190.299168 681.404105,191.906379 681.404105,194.978907 C681.404105,198.057054 679.518723,199.59121 675.253431,199.59121 L675.253431,199.59121 Z" id="Fill-25" fill="#005DA0"></path>
                <path d="M696.361427,246.488346 L696.361427,212.17354 L691.052291,212.17354 L691.052291,204.138888 L696.361427,204.138888 L696.361427,202.318131 C696.361427,195.95953 700.765804,190.719235 710.899385,190.719235 C713.279294,190.719235 715.93035,191.066246 717.752512,191.625398 L717.118899,198.616206 C715.861509,198.33382 714.466439,198.196139 713.065748,198.196139 C708.806076,198.196139 707.19746,199.873596 707.19746,202.599112 L707.19746,204.138888 L716.212736,204.138888 L716.212736,212.17354 L707.19746,212.17354 L707.19746,246.488346 L696.361427,246.488346 Z" id="Fill-27" fill="#005DA0"></path>
                <path d="M738.439598,212.243223 L738.439598,233.911074 C738.439598,237.195742 740.117055,238.590813 743.471968,238.590813 C744.590273,238.590813 746.054184,238.384292 746.826881,238.101906 L747.454874,245.998877 C745.985343,246.632489 743.189582,247.191642 740.185895,247.191642 C731.729772,247.191642 727.603565,242.296952 727.603565,234.256681 L727.603565,212.243223 L722.853581,212.243223 L722.853581,204.138326 L728.092472,204.138326 L729.909015,194.558278 L738.439598,193.792605 L738.439598,204.138326 L747.870726,204.138326 L747.870726,212.243223 L738.439598,212.243223 Z" id="Fill-29" fill="#005DA0"></path>
                <g id="Group-33" transform="translate(11.884, 0)">
                    <mask id="mask-5" fill="white">
                        <use xlink:href="#path-4"></use>
                    </mask>
                    <g id="Clip-32"></g>
                    <path d="M106.392437,138.839181 C106.035591,139.314039 105.490488,139.554278 104.93274,139.67229 C104.304748,139.748155 103.652872,139.606259 103.116198,139.203052 L74.0796202,117.390496 L35.2269706,88.2035928 L6.19039267,66.3896319 C5.65371893,65.9864241 5.33480548,65.4005787 5.23365232,64.775396 C5.19291007,64.2078143 5.27158476,63.6163493 5.62702574,63.1428963 L13.5492854,52.5976788 C13.5492854,52.5976788 22.2386232,41.3542236 29.8714725,31.1939501 L62.5523741,55.7446662 L97.9545769,82.3395191 L130.635479,106.890235 C123.002629,117.050509 114.313292,128.295369 114.313292,128.295369 L106.392437,138.839181 Z M51.7725376,5.87896574 L80.6419318,27.5735098 L80.6377171,27.5791294 L100.150444,42.2322893 L119.65755,56.8924736 L119.66317,56.886854 L148.538184,78.5715637 C149.641034,79.3990528 149.872844,80.9599023 149.055189,82.0472988 L142.133222,91.5851993 L109.45232,67.0330784 L74.0501172,40.4396304 L41.3692155,15.8875094 L48.2911828,6.35101385 C49.1074327,5.26361732 50.671092,5.05147666 51.7725376,5.87896574 L51.7725376,5.87896574 Z M151.836901,74.3484191 L103.367676,37.9487337 L54.9110955,1.53499928 C51.5351086,-1.00085437 46.7359529,-0.325095032 44.2057189,3.04246241 L1.54296671,59.8343448 C0.877041707,60.7208399 0.466809427,61.7084882 0.236404996,62.7284493 C-0.502575069,65.6267684 0.506146769,68.8271422 3.04902494,70.7378131 L31.9226339,92.4281424 L70.9424672,121.740082 L99.8160761,143.430411 C102.358954,145.341082 105.713868,145.418352 108.291868,143.902459 C109.207867,143.396693 110.040975,142.727958 110.7069,141.841463 L153.369652,85.049581 C155.899886,81.6820235 155.211483,76.8842727 151.836901,74.3484191 L151.836901,74.3484191 Z" id="Fill-31" fill="#AEB1BC" mask="url(#mask-5)"></path>
                </g>
                <path d="M6.76040318,279.121902 L40.8054677,166.073406 L133.048725,166.072002 L125.096962,176.715562 L113.655415,192.526364 L112.353068,194.864126 L111.151874,197.579808 L109.921177,200.636881 L108.637094,203.885021 L107.404992,207.425382 L106.192559,210.902522 L105.044752,214.400736 L103.913803,217.832919 L102.905081,221.089489 L101.969415,224.088961 L101.144735,226.704894 L100.513933,228.889522 L100.032051,230.559954 L99.6316526,231.595369 C99.6316526,231.595369 99.5557877,231.818749 99.359101,232.088491 C99.1301015,232.405999 97.7364357,233.685868 96.5970577,232.840115 C95.5040415,232.02808 95.6234585,229.156454 95.7330411,227.793696 C96.0702183,223.609889 96.4088004,219.426081 96.7459776,215.242274 C96.8653945,213.774148 95.0671161,212.943849 93.9066645,213.612584 C88.8195032,216.541811 85.7792887,220.096221 82.9975766,224.157802 C83.2560792,223.205276 83.5145817,222.25275 83.7730842,221.30163 C84.9433701,216.988571 86.602563,212.526593 87.2319605,208.096927 C87.5930211,205.566693 86.9523844,202.560196 83.9908445,202.068479 C80.6654342,201.516352 78.4892363,205.01316 76.8581415,207.318609 C71.9325443,214.277104 69.0187712,223.106933 62.9074342,229.159264 C60.6047948,231.440829 58.0492725,233.114071 54.7336965,232.172785 C50.9011155,231.085388 49.4091063,235.602158 56.1821536,236.213292 C62.8371889,236.813186 67.793694,229.774612 70.8212644,224.85323 C73.0199408,221.280556 74.9404461,217.549128 77.0829263,213.945547 C78.1113168,212.214704 79.1846643,210.504934 80.3661894,208.872434 C80.8691455,208.177006 81.8286956,206.309888 82.7306447,206.062624 C83.9135747,205.736686 83.6101152,206.41947 83.5384651,207.348112 C83.3754961,209.451255 82.4875961,211.619024 81.9368733,213.644897 C81.3355739,215.863242 80.7342746,218.080182 80.1329752,220.297122 C78.8432723,225.048511 77.5549744,229.7999 76.2652716,234.551289 C75.680831,236.706414 78.522954,237.705301 79.7143135,236.006771 C84.4586779,229.246368 86.8189184,223.514355 92.6689431,218.993371 C92.5481213,220.478355 92.4287043,221.96334 92.3092874,223.448325 C92.1097909,225.905503 91.6447673,228.501768 91.811951,230.963162 C92.0859075,234.974166 95.1247172,237.755878 98.9277952,236.001151 C100.92557,235.078129 102.354359,233.680248 102.354359,233.680248 L102.587573,233.522899 L103.389774,232.91598 L104.853685,231.94519 L106.85146,230.571193 L109.07121,228.913405 L111.519959,227.185372 L114.400015,225.158094 L117.319407,223.005779 L120.237395,220.85487 L123.156788,218.702555 L126.011555,216.530572 L128.68228,214.515938 L131.140863,212.508329 L133.295988,210.833682 L135.008567,209.239115 L136.353061,207.956436 L136.400828,207.881976 L136.435951,207.911479 L145.525686,197.165361 L168.77827,166.072002 L210.040332,166.072002 L242.143818,279.121902 L6.76040318,279.121902 Z M172.436643,161.180122 L245.543688,63.4183981 L252.999519,53.5910872 C252.999519,53.5910872 253.145629,53.3803514 253.224304,53.2721738 C253.753953,52.5402182 253.651395,51.5792632 252.920844,51.0510188 L232.227998,36.0536573 C231.508686,35.5296277 230.554756,35.7347438 230.023702,36.4582699 C229.947837,36.5636378 229.791892,36.7561098 229.791892,36.7561098 L226.990512,40.3315932 L136.704288,161.180122 L37.2651069,161.181527 L0,284.013782 L248.784804,284.013782 L213.642509,161.178717 L172.436643,161.180122 Z" id="Fill-34" fill="#005DA0"></path>
                <path d="M262.372062,58.2097126 L259.639522,56.1557414 C259.095824,55.746914 258.316101,55.8579015 257.907274,56.4015998 L223.154137,102.637026 C222.74531,103.180724 222.856298,103.960446 223.399996,104.369273 L226.132536,106.42465 C226.677639,106.832072 227.457362,106.722489 227.866189,106.178791 L262.617921,59.9419606 C263.026748,59.3982623 262.915761,58.61854 262.372062,58.2097126" id="Fill-36" fill="#005DA0"></path>
                <polygon id="Fill-38" fill="#005DA0" points="122.789405 255.069366 191.923379 255.069366 190.458063 249.590236 122.789405 249.590236 55.1207478 249.590236 53.6554319 255.069366"></polygon>
            </g>
        </g>
    </g>
</svg>